<?xml version="1.0" encoding="UTF-8"?> <svg xmlns="http://www.w3.org/2000/svg" id="Layer_1" data-name="Layer 1" viewBox="0 0 463.9 274.48"><defs><style>.cls-1{fill:#00005a;}.cls-2{fill:#fff;}</style></defs><rect class="cls-1" y="237.56" width="464" height="36.63"></rect><rect class="cls-2" x="328.6" y="0.11" width="135" height="221.33"></rect><path class="cls-1" d="M423,0c1.22,6.37,2.45,12.74,3.74,19.47a19.8,19.8,0,0,1-3.14-.8c-2.19-.93-4.22-2.57-6.47-2.9-10.7-1.57-14.7,5-18.09,13.8-2.05,5.33-2.1,11.42-3.11,17.6-2.93-5-6.32-9.44-12.9-6.91-2.87,1.11-4.66,8.78-3,14.06,1.16,3.75,3.41,6.61,8.19,6.86,5.22.28,6.9-2.53,8.39-7.11l6.23,15.63H390.93c-11.85-.15-18.83,6.72-24.92,16-7.43,11.32-9.69,24-11.47,36.9-.33,2.46.58,5.08,1,8-3.52.6-8.09-1.18-10.08,3.54-1.1,2.62-2.72,5.28-2.9,8-.53,7.61-1.7,15.46,4.06,22,2.58,2.94,5.49,3.06,7.38-.36,2-3.59,3.53-7.42,5.48-11.58-.08,0,1.43.13,1.51.54,1.09,5.87,6.3,8.38,9.79,12.27,4.17,4.64,8.14,9.46,12.39,14,3.7,4,8.71,4.84,13.84,4.81,7,0,8.41,2.43,6.33,8.81-2,6.15.29,12.33,3.74,17.2,2.46,3.46,5.57,7,11,7.84,5.82.92,9.59-.47,9.21-6.33-.32-5.1-1.85-10.12-2.88-15.35,12.48-5.75,14.3-10.2,11.49-29.34,9-4.59,12.75-10.06,11-17.32-.79-3.21-2.56-7-5.1-8.75s-6.72-1.53-10.53-2.22v-7.79c3.06,0,6-.33,8.79.09s5.37,1.83,8.13,2.4a66.73,66.73,0,0,0,8.81,1c2.1.15,4.23,0,6.7,0V240.82H6c-2,0-4,0-6,.07V0ZM74.19,12.74V224.93h47c7.74,0,13.15-4.25,18.16-9.67,7-7.6,8.65-16.83,8.66-26.54q.09-70.49,0-141c0-8.9-1.49-17.54-7.41-24.48C135.75,17.6,130.53,12,121.77,12.74c-4.8.39-9.66.07-14.5.07ZM187.35,224.93v-8q0-85.73-.1-171.44c0-4.27,1-6,5.56-5.75,6.31.36,12.66.25,19,0,3.63-.13,5,1,4.95,4.79q-.24,29,0,58c0,3.57-1.25,4.62-4.67,4.48-5.59-.23-11.2-.06-16.81-.06,0,8.2-.85,15.77.21,23.09,1.33,9.17,4.18,18.12,6.46,27.14,1.5,6,3.11,12,4.74,17.91,1.72,6.24,3.7,12.42,5.22,18.69,2.49,10.31,4.7,20.67,7,30.72h22.9c-1-4.47-1.88-8.41-2.78-12.34-1.86-8.16-3.62-16.35-5.66-24.46-2.58-10.26-5.39-20.47-8.11-30.69-1.25-4.68-2.63-9.35-3.75-14.07s-2.07-9.65-3.2-15h7.56c7.32-.08,10.94-4.28,12.4-11.34a31.84,31.84,0,0,0,.46-6.46V33.66c0-3.33-.2-6.66-.52-10-.64-6.54-5.36-10.92-11.8-10.94-18.66,0-37.33.1-56-.12-4.23,0-5.31,1.28-5.31,5.37q.19,99.48.13,199c0,1.5-.45,3.23.15,4.44.71,1.42,2.26,3.3,3.55,3.38C174.69,225.12,180.52,224.93,187.35,224.93ZM329.92,79.76c0-8.1.08-15.7,0-23.3-.16-11.32-.25-22.64-.76-34-.24-5.18-4.9-9.66-9.55-9.69-17.66-.1-35.33-.11-53,.06-1.59,0-3.41,1.28-4.7,2.44C256.43,20.2,256,26.78,256,33.56q.08,85,.06,170a69.32,69.32,0,0,0,.2,7.49c.74,6.8,7.15,14,11.68,13.92,16.83-.13,33.66,0,50.49-.11a10,10,0,0,0,4.37-1.55c6.66-3.64,7.1-10,7.12-16.56Q330,182,330,157.22a41.44,41.44,0,0,0-.55-4.84H307.91v45.41c-8.58,0-16.39-.27-24.17.11-4.47.21-5.7-1.29-5.69-5.6q.18-73.71.11-147.45c0-1.45.16-2.9.25-4.51h29.64V80.28h21a53.41,53.41,0,0,0,.06,6.93A38.56,38.56,0,0,0,330.8,93l2,1.13c2.1-2.84,4.88-5.41,6.11-8.57,1.09-2.81,1.58-6.88.29-9.32-1.84-3.49-3.47.85-5.26,1.56C332.79,78.25,331.73,78.87,329.92,79.76ZM33,224.93c6.07,0,11.57-.31,17,.1,4.67.35,5.92-1.29,5.9-5.84q-.21-84-.11-167.95c0-11.33.12-22.66-.07-34,0-1.5-1.44-4.23-2.33-4.28-6.74-.36-13.51-.2-20.4-.2Zm329-45.66-.5.13a102.51,102.51,0,0,0,2.77,10.91c1,2.62,2.2,5.75,4.31,7.21,3.91,2.7,9.4-1.69,8.2-7.06-1.33-5.92-1.35-12.75-7.08-17-1.42-1-3.35-2.89-4.39-2.52-1.43.51-2.5,2.66-3.22,4.32C361.64,176.44,362,178,362,179.27ZM351.2,79.51c-2.42,3.71-4.73,7.3-7.11,10.86-1.61,2.41-1.46,5,1.32,5.5,2.5.42,7.11-.31,7.65-1.72C354.72,89.8,358.56,84.69,351.2,79.51Z"></path><path class="cls-1" d="M464,0V50.28c-6.89,3.29-12.81,5.78-18.37,8.92-2.31,1.31-3.82,4-5.75,6a11.75,11.75,0,0,1-2,1.36,7.86,7.86,0,0,1-.35-2.41c.66-3.72,2.35-7.51,2-11.1-.61-6.06-2.46-12-3.86-18-.16-.69-.78-1.28-1.79-2.87,2.44,0,4.28-.55,5.46.09,5.61,3,7.73-1.55,9.17-4.81a32.48,32.48,0,0,0,1.12-23.63A27.55,27.55,0,0,1,449,0Z"></path><path class="cls-1" d="M427.75,85.15l-3.64,13.77-4.62-11.08Z"></path><path class="cls-2" d="M74.19,12.74h33c4.84,0,9.7.32,14.5-.07,8.76-.72,14,4.87,18.83,10.55,6,6.94,7.48,15.58,7.48,24.48v141c0,9.72-1.63,19-8.66,26.55-5,5.42-10.42,9.66-18.16,9.68h-47Zm22.9,185.13c6.17,0,11.64.08,17.11-.07,1.14,0,2.3-.86,3.38-1.45,6.28-3.41,8.29-9.27,8.31-15.82q.14-62.19-.06-124.37a24.78,24.78,0,0,0-2.17-10c-1.11-2.39-3.58-5.55-5.73-5.79-6.84-.74-13.81-.27-20.84-.27Z"></path><path class="cls-2" d="M187.35,225c-6.83,0-12.66.2-18.46-.16-1.29-.08-2.84-2-3.55-3.39-.6-1.21-.15-2.94-.15-4.44q0-99.49-.13-199c0-4.1,1.08-5.43,5.31-5.38,18.66.22,37.33.08,56,.12,6.44,0,11.16,4.4,11.8,11,.32,3.31.52,6.64.52,10q.08,38.24,0,76.49a31.78,31.78,0,0,1-.46,6.46c-1.46,7.07-5.08,11.27-12.4,11.35h-7.56c1.13,5.38,2,10.23,3.2,15s2.5,9.39,3.75,14.08c2.72,10.22,5.53,20.43,8.11,30.69,2,8.12,3.8,16.31,5.66,24.47.9,3.93,1.77,7.87,2.78,12.35h-22.9c-2.27-10.06-4.48-20.42-7-30.73-1.52-6.28-3.5-12.46-5.22-18.7-1.63-6-3.24-11.92-4.74-17.91-2.28-9-5.13-18-6.46-27.15-1.06-7.32-.21-14.9-.21-23.1,5.61,0,11.22-.17,16.81.06,3.42.14,4.69-.91,4.67-4.48q-.22-29,0-58c0-3.81-1.32-4.92-4.95-4.79-6.33.22-12.68.33-19,0-4.56-.26-5.57,1.48-5.56,5.75q.19,85.74.1,171.49Z"></path><path class="cls-2" d="M329.92,79.78c1.81-.89,2.87-1.51,4-2,1.79-.71,3.42-5,5.26-1.56,1.29,2.44.8,6.51-.29,9.32-1.23,3.17-4,5.74-6.11,8.58l-2-1.13a39.25,39.25,0,0,1-1.69-5.8A52.79,52.79,0,0,1,329,80.3H308V40.35H278.41c-.09,1.61-.24,3.06-.25,4.51q0,73.76-.11,147.5c0,4.31,1.22,5.81,5.69,5.6,7.78-.38,15.59-.11,24.17-.11V152.42h21.48a41.36,41.36,0,0,1,.55,4.85q0,24.75-.05,49.49c0,6.51-.46,12.92-7.12,16.56a9.92,9.92,0,0,1-4.37,1.56c-16.83.1-33.66,0-50.49.11-4.53,0-10.94-7.13-11.68-13.93a69.32,69.32,0,0,1-.2-7.49q0-85-.06-170c0-6.78.46-13.36,5.93-18.25,1.29-1.16,3.11-2.43,4.7-2.44,17.66-.17,35.33-.16,53-.06,4.65,0,9.31,4.52,9.55,9.7.51,11.31.6,22.63.76,34C330,64.08,329.92,71.68,329.92,79.78Z"></path><path class="cls-2" d="M33,225V12.74c6.89,0,13.66-.16,20.4.2.89.05,2.31,2.78,2.33,4.29.19,11.33.07,22.66.07,34q0,84,.11,168c0,4.56-1.23,6.2-5.9,5.85C44.54,224.64,39,225,33,225Z"></path><path class="cls-2" d="M362,179.32c0-1.33-.39-2.83.09-3.95.72-1.66,1.79-3.81,3.22-4.32,1-.37,3,1.49,4.39,2.52,5.73,4.19,5.75,11,7.08,17,1.2,5.37-4.29,9.76-8.2,7.06-2.11-1.46-3.36-4.59-4.31-7.21a102.69,102.69,0,0,1-2.77-10.92Z"></path><path class="cls-2" d="M351.2,79.53c7.36,5.18,3.52,10.3,1.86,14.65-.54,1.41-5.15,2.14-7.65,1.72-2.78-.47-2.93-3.09-1.32-5.5C346.47,86.84,348.78,83.24,351.2,79.53Z"></path><path class="cls-1" d="M97.09,197.87V40.11c7,0,14-.47,20.84.27,2.15.24,4.62,3.4,5.73,5.79a24.78,24.78,0,0,1,2.17,10q.23,62.19.06,124.37c0,6.55-2,12.41-8.31,15.82-1.08.59-2.24,1.42-3.38,1.45C108.73,198,103.26,197.87,97.09,197.87Z"></path><path class="cls-2" d="M2.54,274.19V252.27H6.06v21.92Z"></path><path class="cls-2" d="M17.86,274.19l-5-12.89c-.13-.3-.23-.58-.32-.86s-.17-.54-.26-.78-.17-.55-.26-.81h0v15.34h-3V252.27h3.08l4.67,12c.11.28.2.55.29.82s.17.52.23.75.15.51.24.75h.05v-14.3h2.95v21.92Z"></path><path class="cls-2" d="M27,255.14v6.39h3.68v2.88H27v9.78H23.44V252.27h7.7v2.87Z"></path><path class="cls-2" d="M33.62,274.19V252.27h7.7v2.87H37.14v6.39h3.68v2.88H37.14v6.83h4.18v2.95Z"></path><path class="cls-2" d="M51.49,274.13a4.58,4.58,0,0,1-1.9.35,5.13,5.13,0,0,1-4.71-2.79c-1.09-1.87-1.63-4.68-1.63-8.46s.54-6.59,1.63-8.45A5.16,5.16,0,0,1,49.59,252a4.58,4.58,0,0,1,1.9.35,4.17,4.17,0,0,1,1.18.71l-.79,2.54a3.21,3.21,0,0,0-.77-.37,2.92,2.92,0,0,0-.92-.16,2.66,2.66,0,0,0-2.48,2,17,17,0,0,0-.81,6.1q0,8.06,3.26,8.06a2.73,2.73,0,0,0,.94-.16,3.53,3.53,0,0,0,.76-.36l.81,2.74A5,5,0,0,1,51.49,274.13Z"></path><path class="cls-2" d="M60.49,255.14v19.05H57V255.14H53.89v-2.87H63.6v2.87Z"></path><path class="cls-2" d="M65.74,274.19V252.27h3.52v21.92Z"></path><path class="cls-2" d="M83.56,263.23a33,33,0,0,1-.31,4.76,12.14,12.14,0,0,1-1,3.54,5.43,5.43,0,0,1-1.81,2.19,5.19,5.19,0,0,1-5.4,0,5.45,5.45,0,0,1-1.82-2.19,12.14,12.14,0,0,1-1-3.54,37,37,0,0,1,0-9.52,12.14,12.14,0,0,1,1-3.54A5.66,5.66,0,0,1,75,252.74a5.23,5.23,0,0,1,5.4,0,5.58,5.58,0,0,1,1.81,2.19,12.14,12.14,0,0,1,1,3.54A33,33,0,0,1,83.56,263.23Zm-3.6-.09a35.66,35.66,0,0,0-.12-3.79,14.11,14.11,0,0,0-.39-2.58,3.51,3.51,0,0,0-.69-1.46,1.44,1.44,0,0,0-2-.05l0,.05a3.51,3.51,0,0,0-.69,1.46,14.11,14.11,0,0,0-.39,2.58c-.08,1-.12,2.31-.12,3.79a36.26,36.26,0,0,0,.12,3.82,13.9,13.9,0,0,0,.39,2.56,3.64,3.64,0,0,0,.69,1.46,1.4,1.4,0,0,0,2,.11l.11-.11a3.64,3.64,0,0,0,.69-1.46,13.9,13.9,0,0,0,.39-2.56c.08-1,.16-2.33.16-3.82Z"></path><path class="cls-2" d="M96.23,271.39a5,5,0,0,1-1.11,1.69,4.87,4.87,0,0,1-1.67,1.05,6.34,6.34,0,0,1-4.17,0,4.64,4.64,0,0,1-1.67-1.05,5,5,0,0,1-1.11-1.69,6.29,6.29,0,0,1-.41-2.31V252.27h3.52v16.91a2.34,2.34,0,0,0,.51,1.63,2,2,0,0,0,2.74,0,2.34,2.34,0,0,0,.51-1.63V252.27h3.26v16.81A6.08,6.08,0,0,1,96.23,271.39Z"></path><path class="cls-2" d="M108.06,268.66a6.71,6.71,0,0,1-.4,2.35,5.77,5.77,0,0,1-1.11,1.84,5.2,5.2,0,0,1-1.7,1.2,5.52,5.52,0,0,1-2.16.43,7.26,7.26,0,0,1-2.27-.33,5.21,5.21,0,0,1-1.54-.74l.83-2.79a4.5,4.5,0,0,0,1,.45,4.21,4.21,0,0,0,1.36.22,2.29,2.29,0,0,0,1-.2,2.14,2.14,0,0,0,.76-.58,2.4,2.4,0,0,0,.48-.85,3.09,3.09,0,0,0,.17-1,4.26,4.26,0,0,0-.4-1.93,8.42,8.42,0,0,0-1-1.58,19.67,19.67,0,0,0-1.3-1.48,12.53,12.53,0,0,1-1.31-1.6,8.7,8.7,0,0,1-1-2,7.45,7.45,0,0,1-.41-2.6,6.34,6.34,0,0,1,.41-2.32,4.84,4.84,0,0,1,2.82-2.81,5.92,5.92,0,0,1,2.12-.37,6.28,6.28,0,0,1,2.1.33,5.52,5.52,0,0,1,1.43.73l-.73,2.54A3.71,3.71,0,0,0,105,255a2.29,2.29,0,0,0-1.76.72,2.56,2.56,0,0,0-.67,1.81,4.35,4.35,0,0,0,.41,1.91,7,7,0,0,0,1,1.57c.41.5.86,1,1.33,1.48a15.67,15.67,0,0,1,1.33,1.6,8.7,8.7,0,0,1,1,2A7.53,7.53,0,0,1,108.06,268.66Z"></path><path class="cls-2" d="M127.53,263.21a25.36,25.36,0,0,1-.39,4.6,11.83,11.83,0,0,1-1.22,3.56,6.06,6.06,0,0,1-2.11,2.3,5.68,5.68,0,0,1-3.09.81,9.19,9.19,0,0,1-2.81-.35,6.77,6.77,0,0,1-1.6-.72V253.05a7.62,7.62,0,0,1,1.66-.71,8.81,8.81,0,0,1,2.75-.35,5.61,5.61,0,0,1,5.2,3,11.33,11.33,0,0,1,1.22,3.52A25.49,25.49,0,0,1,127.53,263.21Zm-3.58-.07a33.5,33.5,0,0,0-.2-3.88,10.37,10.37,0,0,0-.62-2.57,3.44,3.44,0,0,0-1-1.41,2.08,2.08,0,0,0-1.27-.42,3.34,3.34,0,0,0-1.09.15v16.28a3.15,3.15,0,0,0,.44.11,4.74,4.74,0,0,0,.65.05,2.15,2.15,0,0,0,1.31-.44,3.33,3.33,0,0,0,1-1.45,10.86,10.86,0,0,0,.59-2.58,30.81,30.81,0,0,0,.24-3.84Z"></path><path class="cls-2" d="M130.14,274.19V252.27h3.52v21.92Z"></path><path class="cls-2" d="M145.17,268.66a6.5,6.5,0,0,1-.41,2.35,5.77,5.77,0,0,1-1.11,1.84,4.92,4.92,0,0,1-1.69,1.2,5.39,5.39,0,0,1-2.17.43,7.26,7.26,0,0,1-2.27-.33,5.21,5.21,0,0,1-1.54-.74l.84-2.79a3.75,3.75,0,0,0,1,.45,4.21,4.21,0,0,0,1.36.22,2.29,2.29,0,0,0,1-.2,2,2,0,0,0,.75-.58,2.58,2.58,0,0,0,.49-.85,3.09,3.09,0,0,0,.17-1,4.41,4.41,0,0,0-.41-1.93,8.42,8.42,0,0,0-1-1.58c-.4-.5-.84-1-1.31-1.48a12.45,12.45,0,0,1-1.3-1.6,8.7,8.7,0,0,1-1-2,7.68,7.68,0,0,1-.4-2.6,6.13,6.13,0,0,1,.4-2.32,5,5,0,0,1,1.13-1.72,5.11,5.11,0,0,1,1.69-1.09,5.93,5.93,0,0,1,2.13-.37,6.28,6.28,0,0,1,2.1.33A5.31,5.31,0,0,1,145,253l-.73,2.54a3.42,3.42,0,0,0-.91-.42,4.13,4.13,0,0,0-1.31-.21,2.29,2.29,0,0,0-1.76.72,2.55,2.55,0,0,0-.66,1.81,4.34,4.34,0,0,0,.4,1.91,7.6,7.6,0,0,0,1,1.57c.42.5.86,1,1.33,1.48a13.6,13.6,0,0,1,1.33,1.6,8.32,8.32,0,0,1,1,2A7.57,7.57,0,0,1,145.17,268.66Z"></path><path class="cls-2" d="M147.57,274.19V252.27h7.7v2.87h-4.18v6.39h3.68v2.88h-3.68v6.83h4.18v2.95Z"></path><path class="cls-2" d="M165.84,274.19l-.76-4.28H160.8l-.78,4.28h-3.34l4.46-21.92H165l4.46,21.92Zm-2.48-14.69c-.07-.37-.13-.74-.17-1.12s-.09-.72-.12-1-.09-.7-.11-1h-.05a4.1,4.1,0,0,1-.08,1,7.46,7.46,0,0,0-.11,1c0,.36-.1.75-.17,1.12l-1.39,7.8h3.55Z"></path><path class="cls-2" d="M179.74,268.66a6.71,6.71,0,0,1-.4,2.35,5.77,5.77,0,0,1-1.11,1.84,5.2,5.2,0,0,1-1.7,1.2,5.52,5.52,0,0,1-2.16.43,7.26,7.26,0,0,1-2.27-.33,5.21,5.21,0,0,1-1.54-.74l.83-2.79a4.5,4.5,0,0,0,1,.45,4.21,4.21,0,0,0,1.36.22,2.29,2.29,0,0,0,1-.2,2.14,2.14,0,0,0,.76-.58,2.4,2.4,0,0,0,.48-.85,3.09,3.09,0,0,0,.17-1,4.26,4.26,0,0,0-.4-1.93,8.42,8.42,0,0,0-1-1.58,19.67,19.67,0,0,0-1.3-1.48,12.53,12.53,0,0,1-1.31-1.6,8.7,8.7,0,0,1-1-2,7.45,7.45,0,0,1-.41-2.6,6.34,6.34,0,0,1,.41-2.32,4.84,4.84,0,0,1,2.82-2.81,5.92,5.92,0,0,1,2.12-.37,6.28,6.28,0,0,1,2.1.33,5.52,5.52,0,0,1,1.43.73l-.73,2.54a4,4,0,0,0-.92-.42,4.11,4.11,0,0,0-1.3-.21,2.29,2.29,0,0,0-1.76.72,2.56,2.56,0,0,0-.67,1.81,4.34,4.34,0,0,0,.4,1.91,7.6,7.6,0,0,0,1,1.57c.41.5.86,1,1.33,1.48a15.67,15.67,0,0,1,1.33,1.6,8.7,8.7,0,0,1,1,2A7.57,7.57,0,0,1,179.74,268.66Z"></path><path class="cls-2" d="M182.14,274.19V252.27h7.7v2.87h-4.17v6.39h3.67v2.88h-3.67v6.83h4.17v2.95Z"></path><path class="cls-2" d="M200.93,268.66a6.71,6.71,0,0,1-.4,2.35,5.77,5.77,0,0,1-1.11,1.84,5.2,5.2,0,0,1-1.7,1.2,5.52,5.52,0,0,1-2.16.43,7.36,7.36,0,0,1-2.28-.33,5.16,5.16,0,0,1-1.53-.74l.83-2.79a4.5,4.5,0,0,0,1,.45,4.21,4.21,0,0,0,1.36.22,2.29,2.29,0,0,0,1-.2,2.14,2.14,0,0,0,.76-.58,2.4,2.4,0,0,0,.48-.85,3.09,3.09,0,0,0,.17-1,4.41,4.41,0,0,0-.41-1.93,8.42,8.42,0,0,0-1-1.58,19.67,19.67,0,0,0-1.3-1.48,12.53,12.53,0,0,1-1.31-1.6,8.7,8.7,0,0,1-1-2,7.45,7.45,0,0,1-.41-2.6,6.34,6.34,0,0,1,.41-2.32,4.92,4.92,0,0,1,1.12-1.72,5.11,5.11,0,0,1,1.69-1.09,5.93,5.93,0,0,1,2.13-.37,6.28,6.28,0,0,1,2.1.33,5.31,5.31,0,0,1,1.42.73l-.73,2.54a3.42,3.42,0,0,0-.91-.42,4.11,4.11,0,0,0-1.3-.21,2.28,2.28,0,0,0-1.77.72,2.55,2.55,0,0,0-.66,1.81,4.34,4.34,0,0,0,.4,1.91,8,8,0,0,0,1,1.57c.42.5.86,1,1.33,1.48a15.77,15.77,0,0,1,1.34,1.6,8.7,8.7,0,0,1,1,2A7.57,7.57,0,0,1,200.93,268.66Z"></path><path class="cls-2" d="M216.74,274.19l-3.44-9c-.09-.21-.17-.42-.24-.64l-.18-.58c0-.17-.13-.4-.18-.6h0v10.85h-3.47V253.05a7.5,7.5,0,0,1,1.89-.74,10.11,10.11,0,0,1,2.62-.32,7.94,7.94,0,0,1,2.82.45,4.83,4.83,0,0,1,3,3.29,9.25,9.25,0,0,1,.35,2.62,5.41,5.41,0,0,1-.38,2.06,5.85,5.85,0,0,1-1,1.59,5.21,5.21,0,0,1-1.23,1.11,4.88,4.88,0,0,1-1.2.62l4.49,10.46Zm-.39-15.55a5.68,5.68,0,0,0-.59-2.95,2.12,2.12,0,0,0-2-1,3.5,3.5,0,0,0-.65.07,3.89,3.89,0,0,0-.49.12v7.38a1.74,1.74,0,0,0,.6.08,2.85,2.85,0,0,0,2.27-1A4.12,4.12,0,0,0,216.35,258.64Z"></path><path class="cls-2" d="M222.54,274.19V252.27h7.69v2.87h-4.17v6.39h3.68v2.88h-3.68v6.83h4.17v2.95Z"></path><path class="cls-2" d="M241.32,268.66a6.71,6.71,0,0,1-.4,2.35,5.77,5.77,0,0,1-1.11,1.84,5.2,5.2,0,0,1-1.7,1.2,5.52,5.52,0,0,1-2.16.43,7.26,7.26,0,0,1-2.27-.33,5.21,5.21,0,0,1-1.54-.74l.83-2.79a4.5,4.5,0,0,0,1,.45,4.11,4.11,0,0,0,1.35.22,2.29,2.29,0,0,0,1-.2,2.14,2.14,0,0,0,.76-.58,2.4,2.4,0,0,0,.48-.85,2.84,2.84,0,0,0,.17-1,4.26,4.26,0,0,0-.4-1.93,8.42,8.42,0,0,0-1-1.58,19.67,19.67,0,0,0-1.3-1.48,12.53,12.53,0,0,1-1.31-1.6,8.7,8.7,0,0,1-1-2,7.68,7.68,0,0,1-.4-2.6,6.13,6.13,0,0,1,.4-2.32,4.92,4.92,0,0,1,1.12-1.72,5.26,5.26,0,0,1,1.7-1.09,5.92,5.92,0,0,1,2.12-.37,6.28,6.28,0,0,1,2.1.33,5.52,5.52,0,0,1,1.43.73l-.73,2.54a4,4,0,0,0-.92-.42,4.11,4.11,0,0,0-1.3-.21,2.29,2.29,0,0,0-1.76.72,2.56,2.56,0,0,0-.67,1.81,4.35,4.35,0,0,0,.41,1.91,7.6,7.6,0,0,0,1,1.57c.41.5.86,1,1.33,1.48a15.67,15.67,0,0,1,1.33,1.6,8.32,8.32,0,0,1,1,2A7.57,7.57,0,0,1,241.32,268.66Z"></path><path class="cls-2" d="M243.72,274.19V252.27h7.7v2.87h-4.17v6.39h3.68v2.88h-3.68v6.83h4.17v2.95Z"></path><path class="cls-2" d="M262,274.19l-.76-4.28H257l-.78,4.28h-3.34l4.46-21.92h3.89l4.46,21.92Zm-2.48-14.69c-.07-.37-.13-.74-.17-1.12s-.08-.72-.12-1-.08-.7-.1-1h-.05c0,.34-.05.69-.08,1s-.08.64-.12,1-.1.75-.17,1.12l-1.38,7.8h3.55Z"></path><path class="cls-2" d="M275,274.19l-3.45-9c-.08-.21-.16-.42-.23-.64l-.18-.58c-.05-.17-.13-.4-.19-.6h-.05v10.85h-3.47V253.05a7.5,7.5,0,0,1,1.89-.74,10.11,10.11,0,0,1,2.62-.32,7.94,7.94,0,0,1,2.82.45,4.86,4.86,0,0,1,3,3.28,8.91,8.91,0,0,1,.36,2.62,5.41,5.41,0,0,1-.38,2.06,6.1,6.1,0,0,1-1,1.59,5.6,5.6,0,0,1-1.22,1.11,5.06,5.06,0,0,1-1.2.62l4.49,10.46Zm-.39-15.55a5.78,5.78,0,0,0-.59-2.95,2.14,2.14,0,0,0-2-1,3.5,3.5,0,0,0-.65.07,4.05,4.05,0,0,0-.5.12v7.38a2,2,0,0,0,.6.08,2.85,2.85,0,0,0,2.27-1,4.09,4.09,0,0,0,.83-2.7Z"></path><path class="cls-2" d="M288.24,274.13a4.58,4.58,0,0,1-1.9.35,5.13,5.13,0,0,1-4.71-2.79c-1.09-1.87-1.64-4.68-1.64-8.46s.55-6.59,1.64-8.45a5.13,5.13,0,0,1,4.71-2.79,4.58,4.58,0,0,1,1.9.35,4.12,4.12,0,0,1,1.17.71l-.78,2.54a3.21,3.21,0,0,0-.77-.37,2.92,2.92,0,0,0-.92-.16,2.66,2.66,0,0,0-2.48,2,17,17,0,0,0-.81,6.1c0,5.37,1.08,8.06,3.26,8.06a2.73,2.73,0,0,0,.94-.16,3.53,3.53,0,0,0,.76-.36l.8,2.74A4.45,4.45,0,0,1,288.24,274.13Z"></path><path class="cls-2" d="M298.83,274.19v-9.78H295v9.78h-3.5V252.27H295v9.26h3.81v-9.26h3.53v21.92Z"></path><path class="cls-2" d="M319,274.13a4.66,4.66,0,0,1-1.91.35,5.17,5.17,0,0,1-4.71-2.79c-1.08-1.87-1.63-4.68-1.63-8.46s.55-6.59,1.63-8.45a5.17,5.17,0,0,1,4.71-2.79,4.63,4.63,0,0,1,1.91.35,4.12,4.12,0,0,1,1.17.71l-.78,2.54a3.21,3.21,0,0,0-.77-.37,2.93,2.93,0,0,0-.93-.16,2.67,2.67,0,0,0-2.48,2,17.29,17.29,0,0,0-.8,6.1c0,5.37,1.08,8.06,3.26,8.06a2.73,2.73,0,0,0,.94-.16,3.24,3.24,0,0,0,.75-.36l.81,2.74A4.45,4.45,0,0,1,319,274.13Z"></path><path class="cls-2" d="M332.86,263.23a33,33,0,0,1-.31,4.76,12.14,12.14,0,0,1-1,3.54,5.43,5.43,0,0,1-1.81,2.19,5.19,5.19,0,0,1-5.4,0,5.45,5.45,0,0,1-1.82-2.19,12.14,12.14,0,0,1-1-3.54,37,37,0,0,1,0-9.52,12.14,12.14,0,0,1,1-3.54,5.69,5.69,0,0,1,1.82-2.19,5.23,5.23,0,0,1,5.4,0,5.58,5.58,0,0,1,1.81,2.19,12.14,12.14,0,0,1,1,3.54A33,33,0,0,1,332.86,263.23Zm-3.6-.09a35.66,35.66,0,0,0-.12-3.79,14.11,14.11,0,0,0-.39-2.58,3.51,3.51,0,0,0-.69-1.46,1.44,1.44,0,0,0-2-.05l0,.05a3.51,3.51,0,0,0-.69,1.46,14.11,14.11,0,0,0-.39,2.58c-.08,1-.12,2.31-.12,3.79a36.26,36.26,0,0,0,.12,3.82,13.9,13.9,0,0,0,.39,2.56A3.59,3.59,0,0,0,326,271a1.4,1.4,0,0,0,2,.11l.11-.11a3.64,3.64,0,0,0,.69-1.46,13.9,13.9,0,0,0,.39-2.56c.05-1.07.09-2.35.09-3.84Z"></path><path class="cls-2" d="M335.44,274.19V252.27H339v19h3.89v3Z"></path><path class="cls-2" d="M345.05,274.19V252.27h3.52v19h3.89v3Z"></path><path class="cls-2" d="M362.58,274.19l-.75-4.28h-4.28l-.79,4.28h-3.34l4.47-21.92h3.88l4.46,21.92ZM360.1,259.5c-.07-.37-.12-.74-.17-1.12s-.08-.72-.11-1-.09-.66-.11-1h0a4.1,4.1,0,0,1-.08,1,9.46,9.46,0,0,0-.12,1c-.05.36-.1.75-.17,1.12L358,267.3h3.55Z"></path><path class="cls-2" d="M378.89,268.14a6.45,6.45,0,0,1-1.6,4.75,6.29,6.29,0,0,1-4.61,1.59,10.8,10.8,0,0,1-2.83-.34,7.49,7.49,0,0,1-1.87-.73V253.05a8.35,8.35,0,0,1,1.87-.73,10.85,10.85,0,0,1,2.78-.33,6.09,6.09,0,0,1,4.54,1.53,6.26,6.26,0,0,1,1.49,4.52,5.34,5.34,0,0,1-.29,1.77,5.85,5.85,0,0,1-.73,1.43,5.29,5.29,0,0,1-.95,1,3.8,3.8,0,0,1-.93.55h0a4.17,4.17,0,0,1,1,.53,4.74,4.74,0,0,1,1,1,5.31,5.31,0,0,1,.8,1.55A6.72,6.72,0,0,1,378.89,268.14Zm-3.7-9.95a4.45,4.45,0,0,0-.65-2.71,2.41,2.41,0,0,0-2-.81,2.57,2.57,0,0,0-1.13.19v6.91h.68C374.14,261.77,375.19,260.58,375.19,258.19Zm.18,9.66a4.24,4.24,0,0,0-.82-2.9,3.22,3.22,0,0,0-2.47-.88h-.7v7.35a2.75,2.75,0,0,0,1.17.19,2.59,2.59,0,0,0,2.07-.86A4.46,4.46,0,0,0,375.37,267.85Z"></path><path class="cls-2" d="M392.64,263.23a33,33,0,0,1-.31,4.76,12.14,12.14,0,0,1-1,3.54,5.43,5.43,0,0,1-1.81,2.19,5.19,5.19,0,0,1-5.4,0,5.45,5.45,0,0,1-1.82-2.19,12.14,12.14,0,0,1-1-3.54,37,37,0,0,1,0-9.52,12.14,12.14,0,0,1,1-3.54,5.69,5.69,0,0,1,1.82-2.19,5.24,5.24,0,0,1,5.4,0,5.58,5.58,0,0,1,1.81,2.19,12.14,12.14,0,0,1,1,3.54A33,33,0,0,1,392.64,263.23Zm-3.6-.09a35.66,35.66,0,0,0-.12-3.79,14.11,14.11,0,0,0-.39-2.58,3.51,3.51,0,0,0-.69-1.46,1.44,1.44,0,0,0-2-.05l-.05.05a3.51,3.51,0,0,0-.69,1.46,14.11,14.11,0,0,0-.39,2.58c-.08,1-.12,2.31-.12,3.79a36.26,36.26,0,0,0,.12,3.82,13.9,13.9,0,0,0,.39,2.56,3.64,3.64,0,0,0,.69,1.46,1.4,1.4,0,0,0,2,.11l.11-.11a3.64,3.64,0,0,0,.69-1.46,13.9,13.9,0,0,0,.39-2.56c.08-1,.08-2.33.08-3.82Z"></path><path class="cls-2" d="M402.74,274.19l-3.44-9c-.09-.21-.17-.42-.24-.64l-.18-.58c-.05-.17-.13-.4-.18-.6h-.06v10.85h-3.47V253.05a7.73,7.73,0,0,1,1.9-.74,10.11,10.11,0,0,1,2.62-.32,8,8,0,0,1,2.82.45,4.83,4.83,0,0,1,3,3.29,9.25,9.25,0,0,1,.35,2.62,5.41,5.41,0,0,1-.38,2.06,5.84,5.84,0,0,1-1,1.59,5.65,5.65,0,0,1-1.23,1.11,4.88,4.88,0,0,1-1.2.62l4.49,10.46Zm-.39-15.55a5.78,5.78,0,0,0-.59-2.95,2.14,2.14,0,0,0-2-1,3.5,3.5,0,0,0-.65.07,4.05,4.05,0,0,0-.5.12v7.38a2,2,0,0,0,.6.08,2.79,2.79,0,0,0,2.27-1,4.11,4.11,0,0,0,.87-2.7Z"></path><path class="cls-2" d="M416.52,274.19l-.76-4.28h-4.28l-.78,4.28h-3.34l4.46-21.92h3.89l4.46,21.92ZM414,259.5c-.07-.37-.13-.74-.17-1.12s-.08-.72-.12-1-.08-.67-.1-1h0c0,.34-.05.69-.08,1s-.08.64-.12,1-.1.75-.17,1.12l-1.38,7.8h3.55Z"></path><path class="cls-2" d="M426.48,255.14v19.05H423V255.14h-3.11v-2.87h9.71v2.87Z"></path><path class="cls-2" d="M431.73,274.19V252.27h3.52v21.92Z"></path><path class="cls-2" d="M449.55,263.23a33,33,0,0,1-.31,4.76,12.14,12.14,0,0,1-1,3.54,5.43,5.43,0,0,1-1.81,2.19,5.19,5.19,0,0,1-5.4,0,5.45,5.45,0,0,1-1.82-2.19,12.14,12.14,0,0,1-1-3.54,37,37,0,0,1,0-9.52,12.14,12.14,0,0,1,1-3.54,5.69,5.69,0,0,1,1.82-2.19,5.23,5.23,0,0,1,5.4,0,5.58,5.58,0,0,1,1.81,2.19,12.14,12.14,0,0,1,1,3.54A33,33,0,0,1,449.55,263.23Zm-3.6-.09a35.66,35.66,0,0,0-.12-3.79,14.11,14.11,0,0,0-.39-2.58,3.51,3.51,0,0,0-.69-1.46,1.44,1.44,0,0,0-2-.05l0,.05a3.51,3.51,0,0,0-.69,1.46,14.11,14.11,0,0,0-.39,2.58c-.08,1-.12,2.31-.12,3.79a36.26,36.26,0,0,0,.12,3.82,13.9,13.9,0,0,0,.39,2.56,3.64,3.64,0,0,0,.69,1.46,1.4,1.4,0,0,0,2,.11,1.14,1.14,0,0,0,.11-.11,3.64,3.64,0,0,0,.69-1.46,13.9,13.9,0,0,0,.39-2.56c.08-1,.17-2.33.17-3.82Z"></path><path class="cls-2" d="M460.88,274.19l-5-12.89c-.13-.3-.23-.58-.32-.86s-.17-.54-.26-.78-.17-.55-.26-.81h0v15.34h-3V252.27h3.08l4.67,12c.11.28.2.55.29.82s.17.52.24.75a6.49,6.49,0,0,0,.23.75h0v-14.3h3v21.92Z"></path></svg> 